<svg xmlns="http://www.w3.org/2000/svg" viewBox="0 0 1044.1 559.1">
    <title>
        Artboard 3
    </title>
    <g style="isolation:isolate">
        <rect x="444.8" y="14.9" width="542.3" height="272.23" fill="none" stroke="#656766" stroke-miterlimit="10" stroke-width="4.76"/>
        <rect x="440.4" y="11.3" width="542.3" height="272.23" fill="#f1f2f2" stroke="#3b7e79" stroke-miterlimit="10" stroke-width="6.35"/>
        <path d="M692.8,43.5c-3.4,6.7-2.3,22.3-1.8,31.8,19.7,1,42.5,4.6,61.7,1.1,11.7-2.2,9.7-10.5,9.7-22.2,0-16.8-3.7-14.7-20.3-15.5S706.8,42.8,692.8,43.5Z" fill="none" stroke="#9a2c80" stroke-linecap="round" stroke-linejoin="round" stroke-width="4.76"/>
        <path d="M668.6,60c-24.1-6.1-54-2-77.4,3.8" fill="none" stroke="#9a2c80" stroke-linecap="round" stroke-linejoin="round" stroke-width="4.76"/>
        <path d="M599.9,52.2c-1.7-1-8.4,6-11.7,8.7,3.1,6.3,8,9.7,13.6,13.6" fill="none" stroke="#9a2c80" stroke-linecap="round" stroke-linejoin="round" stroke-width="4.76"/>
        <path d="M572.8,58c-14.8-1.9-31.1-1.4-46.3-.8-.4,9.4-4.3,23.5,3.8,27,10.5,4.5,29.3.5,40.4-.2C573.1,78.1,574.5,63.8,572.8,58Z" fill="none" stroke="#9a2c80" stroke-linecap="round" stroke-linejoin="round" stroke-width="4.76"/>
        <path d="M549.6,95.8c-.6,7.4-2.3,20.4-3.1,29.9a62.7,62.7,0,0,0-6.7-7.3,52.8,52.8,0,0,1,6.1,7.2c4.2-1.4,7.5-4.6,10.5-7.6" fill="none" stroke="#9a2c80" stroke-linecap="round" stroke-linejoin="round" stroke-width="4.76"/>
        <path d="M529.3,137.4c0,7.5,2.2,23.8.1,32.7,7.3.2,22.2,4.5,28.9,1.1s4.3-14.4,3.9-21.8c-.7-12-2.4-10.2-13.1-10.1C542.1,139.4,533,137.1,529.3,137.4Z" fill="none" stroke="#9a2c80" stroke-linecap="round" stroke-linejoin="round" stroke-width="4.76"/>
        <path d="M712.1,85.1c-8.6,3.2-15.1,10.3-21.9,16.2-20.5,17.9-43.1,34.7-60.4,56a30.6,30.6,0,0,0-2.6-9.2,47,47,0,0,0,1.9,9.5c4.2-1.1,8.1-3.4,12.4-3.8" fill="none" stroke="#9a2c80" stroke-linecap="round" stroke-linejoin="round" stroke-width="4.76"/>
        <path d="M732.4,90c-9.1,10-14.1,30.2-18.5,43.5-3.4,10.5-8.1,20.9-11.7,30.9a16.8,16.8,0,0,1-4.6-9.3c2.5,12.7,6.2,12.5,17.4,5.5" fill="none" stroke="#9a2c80" stroke-linecap="round" stroke-linejoin="round" stroke-width="4.76"/>
        <path d="M750.8,89c3.1,24.9,9,49.2,16.1,72.6-4.8-.9-8-4.3-11.4-7.5,1.8,4,5.5,6.7,8.8,9.5,5.3-4.3,9.3-10.2,13.6-15.6" fill="none" stroke="#9a2c80" stroke-linecap="round" stroke-linejoin="round" stroke-width="4.76"/>
        <path d="M585.4,177c-.6,8.3.7,17.6,1.1,26,14.5,1.7,34.8.3,49-2,.3-5.8-.6-12.1-.9-18C620,181.8,600,189.6,585.4,177Z" fill="none" stroke="#9a2c80" stroke-linecap="round" stroke-linejoin="round" stroke-width="4.76"/>
        <path d="M586.4,210.9c0,7.7-4.4,40.1,1.9,44.5,3.2,2.3,16.4-1,20.6-1,8-.1,16,.3,23.8-1.1,3.5-12.7,1.6-29.9.9-43.3C619.5,208.5,600.1,217.9,586.4,210.9Z" fill="none" stroke="#9a2c80" stroke-linecap="round" stroke-linejoin="round" stroke-width="4.76"/>
        <path d="M673.4,179.9c-2.8,6.3-2.1,18.3-1.8,26,8.9.6,17.8-2.5,26.9-2.8s16.8.3,25.1-.1c.4-8.2.4-16.7,0-24.9C706,177.2,688.2,179.1,673.4,179.9Z" fill="none" stroke="#9a2c80" stroke-linecap="round" stroke-linejoin="round" stroke-width="4.76"/>
        <path d="M670.5,212.8a167.2,167.2,0,0,0-1.9,30.9c.4,8.4-1.1,7.9,6.8,9.7,5.8,1.4,14.4.3,20.3,0s10.5-1.5,15.9-2.8c7.7-1.8,7.2,1.7,9.2-6.4,2.6-10.2-2.5-21.4,1.6-31.5C705.4,213.1,688.6,213.8,670.5,212.8Z" fill="none" stroke="#9a2c80" stroke-linecap="round" stroke-linejoin="round" stroke-width="4.76"/>
        <path d="M550.6,179.9c6.1,9.7,12.6,17.8,23.3,25.8-1.1-4.2-1.8-9.6-2.8-13.1-.8,5.3,1.4,10.1,1.6,15.2a20.6,20.6,0,0,1-8.6,1.1" fill="none" stroke="#9a2c80" stroke-linecap="round" stroke-linejoin="round" stroke-width="4.76"/>
        <path d="M744,178.9c.3,8.5-1.2,16.6-.8,25.1,14.7-4.1,29.7-3.1,45.2-3.9.3-7.6.3-15.4,0-22.9C773.1,176,757.6,179.9,744,178.9Z" fill="none" stroke="#9a2c80" stroke-linecap="round" stroke-linejoin="round" stroke-width="4.76"/>
        <path d="M742.1,210.9c0,14.4-2,28.6-2.8,42.4,16.3.8,36.6-3.4,52.2,1,2.5-7.4,4.1-35.6-3-39.6-5.2-3-19.3.3-25.5,0S748.1,214.2,742.1,210.9Z" fill="none" stroke="#9a2c80" stroke-linecap="round" stroke-linejoin="round" stroke-width="4.76"/>
        <path d="M810.3,187.3c7-5.6,14.7-10.2,21.9-15.5s14.2-9.3,20.4-14.9c-1.1,1.1-12.9-1.2-14.4-1.2,4.8.4,9.7.4,14.4,1.2.5,4.5-1.9,8.5-3.1,14.3" fill="none" stroke="#9a2c80" stroke-linecap="round" stroke-linejoin="round" stroke-width="4.76"/>
        <path d="M832,107.4c-.3-1.7-.7-3-1.1-4.8-2.7,7.8-.8,20.8-1.6,29.8,16.7-3.9,36.5-.1,53.9-1,.5-9.9.7-19.9,1.9-29.7C869.8,100.7,846.8,98.4,832,107.4Z" fill="none" stroke="#9a2c80" stroke-linecap="round" stroke-linejoin="round" stroke-width="4.76"/>
        <path d="M840.7,55.1c.3,5.1-2.3,16-1.7,23.1,15.5,1,33.1,4.6,48,3.9a274.8,274.8,0,0,0,0-28.7C870.4,52.4,850.1,51.6,840.7,55.1Z" fill="none" stroke="#9a2c80" stroke-linecap="round" stroke-linejoin="round" stroke-width="4.76"/>
        <path d="M827.2,71.5c-22.4-4.1-38.5-7.7-58.7-14.3a43.6,43.6,0,0,0,4.6,11.1c-1.3-3.8-2.9-7.3-4.6-11.1,3.8-.5,7.8-1.3,11.3-2.1" fill="none" stroke="#9a2c80" stroke-linecap="round" stroke-linejoin="round" stroke-width="4.76"/>
        <polygon points="462.9 102.2 461.5 119 479.9 118.2 478.5 106.8 462.9 102.2" fill="#231f20" opacity="0.62" style="mix-blend-mode:multiply"/>
        <path d="M481.3,117.1c.1.2-18,.7-18,.7s-.6-8.9-.4-17.7l16.3.5S480.6,112.9,481.3,117.1Z" fill="#ed308a"/>
        <polygon points="452.3 133.3 452.7 147.8 465.8 146.6 452.3 133.3" fill="#231f20" opacity="0.62" style="mix-blend-mode:multiply"/>
        <path d="M470.8,146.3c.1.2-15.1.7-15.1.7s-4.1-8.9-3.3-17.7l15,.7S470,142.1,470.8,146.3Z" fill="#ed308a"/>
        <polygon points="482.3 129.7 481.3 140.8 491.9 140.8 482.3 129.7" fill="#231f20" opacity="0.62" style="mix-blend-mode:multiply"/>
        <path d="M501.3,141.5c0,.2-15.1.7-15.1.7s-6.3-9.3-3.4-17.7l15.1.7S500.5,137.3,501.3,141.5Z" fill="#ed308a"/>
        <polygon points="472.2 163.4 471.2 174.4 481.8 174.4 472.2 163.4" fill="#231f20" opacity="0.62" style="mix-blend-mode:multiply"/>
        <path d="M491.4,174.9c0,.2-15.1.6-15.1.6s-6.3-9.2-3.3-17.7l15,.8S490.6,170.6,491.4,174.9Z" fill="#ed308a"/>
        <rect x="623.9" y="535.4" width="9.1" height="23.52" fill="#505252"/>
        <rect x="954.9" y="535.4" width="9.1" height="23.57" fill="#656766"/>
        <rect x="69.9" y="535.4" width="9.1" height="23.26" fill="#656766"/>
        <rect x="410.3" y="535.4" width="9.1" height="23.37" fill="#505252"/>
        <path d="M811,117.5s3.5,8.2,2.5,15.2c0,0,1.5,7.2.7,8.6s4.8,20.6-7.4,23.2l-2.1,7.6L779,167.6s0-9.8-.6-13.9l21.3-35.6Z" fill="#fbc6b5"/>
        <path d="M811.7,135s-5.1-3.6-5.8,3.7c0,0-1.7,3.5,0,9.9-2,2.5-3,4.8-5.4,6.9-4.9,4.2-16.6,8-22.5,3.8,0,0-2.9-7.6-5.7-9.4,0,0-14.6-14.9-6.4-32.3,0,0,2.8-5.5,6.6-7.5,0,0,5-12.1,21.5-6.7,0,0,15.3,1.1,18.6-.2,0,0,2.8,11.3-1.6,14.3C811,117.5,806.6,120.6,811.7,135Z" fill="#835344"/>
        <path d="M835.3,325.4c7.6,22.6-4.5,194.1-4.5,194.1h-26l-8.7-136.4s-.3-17.4-9.7-10.7l4.5-30S831.7,314.7,835.3,325.4Z" fill="#617880"/>
        <path d="M756.4,328s-8.1,15.6-4.9,39.7l-.8,49.8,1.4,102h29.2S791.9,392,795.8,374.8c0,0,5.6-3.3,4.5-39Z" fill="#748594"/>
        <polygon points="847 122.1 845.1 120.3 843.2 121.4 845.1 124.4 848.8 130.1 849.3 125 847 122.1" fill="#9a2c80"/>
        <path d="M848.4,131.8s.4-6.5-3.8-5.5c0,0-1.1,1.6.9,3.8,0,0-1.9,3.4,1.8,4.5l3.2,3.3s5.1,7.8,9.3,8.4c0,0,2.8.2,9.4,12.5,0,0,7.3,23.8,10.2,25.4L891,199s8.7-1.2,6.2-7.4c0,0-6-20.6-15.3-31.3,0,0-9.2-17.4-12.7-17.4,0,0-.3-15.1-3.7-15.8,0,0-3.9-1-4.8-.4s-2.3-1.8-4.6-1.2c0,0-5.6-7.5-6.5-4.5,0,0-3.7,3.8-2.6,5s.9,1.5,2.4-1a14.8,14.8,0,0,0,2.5,4.6,29.1,29.1,0,0,1,.3,3.2C852,133,849.2,130.8,848.4,131.8Z" fill="#eebcac"/>
        <path d="M742.5,189.3S774.2,178,777.4,172h26.1c2.1,0,7.2,4.6,9.3,5.6s5.5,4,8.8,3.3,6.5-1.5,10.9-.9a58.8,58.8,0,0,1,14.5,3.3c6.7,2.9,13.3,1.4,20.4,1.7,4.4.1,8.8,1,13.3.8l5.9,17.2a1.5,1.5,0,0,1-1.2,2c-2.5.4-5.6,2.8-11,3.6l-21.2,3.2c-2.2.3-14.2.9-14.2.9s-.1,8.8,0,11.6c.6,15.5,1.1,31.1,2.7,46.6s5,31.2,7.8,46.7c.1,1-8,5-9,5.8-8,5.9-7.2,12.3-16.1,17.2-11.5,6.2-25.4,9.6-38.4,7.5,0,0-24.7.9-33.1-21.8-.6-1.6.9-4.4,1.2-6,.5-3.1.8-6.2,1.5-9.3,1.5-5.9,3.9-12,4-18.2a143.8,143.8,0,0,0-4.2-36.4c-1.3-5.2-2.3-10.5-3.9-15.7-.6-2-4.3-11.5-4.3-11.5s-11.1,12.6-13.2,14.4-3.8,4.5-5.5,5.8a32.6,32.6,0,0,1-3.6,2.9c-4.3,2.3-8.1-2.8-11.4-4.8s-12.8-.7-9.5-6.1c.6-1.1,3.8-7.3,5-8.9,4.7-6.2,8.6-9.2,12.9-15.5s10.9-15.1,15.2-23C738.3,191.7,739.8,189.6,742.5,189.3Z" fill="#f26622"/>
        <polygon points="856.8 134.6 849.3 125 848.5 126 848.8 130.1 852.9 137.1 856.8 134.6" fill="#9a2c80"/>
        <path d="M857.2,135.9c0,1.5-1.8,2.5-3.3,2a1.2,1.2,0,0,1-1-.8,1.8,1.8,0,0,1,.4-1.6,3.4,3.4,0,0,1,1.8-1.3A1.7,1.7,0,0,1,857.2,135.9Z" fill="#400341"/>
        <path d="M869.3,185c-.1-.7,3-1.2,3.7-1.5,3.9-1.6,8.9-2.2,12.9-.1s4.6,5.5,5.6,8,3.4,9.8,1,12.4a6.4,6.4,0,0,1-2.1,1.4,49.3,49.3,0,0,1-6.4,2.4c-1.9.5-4.2,1-4.5-1.6a39.1,39.1,0,0,0-.5-4.8c-.6-3-1.6-5.9-2.3-8.8a9.8,9.8,0,0,0-2-4.4c-1.4-1.4-3.4-1.5-5-2.5Z" fill="#f68d46"/>
        <path d="M700.3,257.4s-3.5,5.8,0,9c0,0,23.1,28.5,30.1,29.1l4.7,4.2s-1.1,4.9,6.9,7.5l4.5,2.1s2.3,7.5,6.8,5.2c0,0,1.8,1.5,3.5.4,0,0,2.1-1,.8-3.6l-.6-5.9s-3.4-4.7,5.9-2.2c0,0,3.7.5,1.7-3.2,0,0-4.4-5-15.2-3.7,0,0-10.7-10.4-17.4-16.7,0,0-12.7-23.3-15.2-18.9Z" fill="#eebcac"/>
        <path d="M704.2,239.5c-.1-.1-2.6,4.2-2.8,4.6-1.2,2.3-3,4.2-4.2,6.5a5.1,5.1,0,0,0-.9,2.6c.2,3.3,4.5,7.7,6.8,9.7a17.3,17.3,0,0,0,9.7,3.9c2.8.2,6.9.2,8.2-2.9s.1-4.4,2.4-5.3c0,0,4.9-5.8,2.9-6.8C726.3,251.8,708.8,244.9,704.2,239.5Z" fill="#f68d46"/>
        <path d="M771.8,175.3l4.5-7.9s4.6-4.6,13.2-2.9c0,0,16.1,1.4,17.7,5.2l2.7,5.6S785.4,169.6,771.8,175.3Z" fill="#f68d46"/>
        <path d="M879.4,204.3s-41.2,3.7-47.6,3.7l8.3,42s-1.7-35-1.1-37.3c0,0,31.1-1.4,40.5-5.5Z" fill="#c05118"/>
        <path d="M720.1,249.1c-.1,0,27.8-29.5,27.8-29.5A98,98,0,0,1,760,261.3s-2.7,4-2.6,4.3-6.3-29.9-10.2-36.4c0,0-18.2,21.5-21.3,22.4Z" fill="#c05118"/>
        <path d="M726.3,251.8l-5.8-2.5c-2,3.6-3.7,7.5-6.2,10.8-.6.9-1.4,1.8-2.1,2.7s-.7,1.8-1.1,2.7a4.1,4.1,0,0,1-.5.9l2.2.4c2.8.2,6.9.2,8.2-2.9s.1-4.4,2.4-5.3C723.4,258.6,728.3,252.8,726.3,251.8Z" fill="#d77c3d"/>
        <path d="M887.3,201.5l-1.3.4-1.3.6a23.8,23.8,0,0,1-4.7,1.7h-.6a10.3,10.3,0,0,0,.1,1.7c.3,2.6,2.6,2.1,4.5,1.6a49.3,49.3,0,0,0,6.4-2.4,6.4,6.4,0,0,0,2.1-1.4,5.9,5.9,0,0,0,1.1-4.3A66,66,0,0,1,887.3,201.5Z" fill="#d77c3d"/>
        <path d="M739.9,559V511.8a2.3,2.3,0,0,1,2.3-2.3h98.7a2.3,2.3,0,0,1,2.4,2.3V559Z" fill="#5e3c23"/>
        <path d="M767.9,509.5s20.3-17.5,47.3,0H809s-18-12.1-34.4,0Z" fill="#573421"/>
        <rect x="741.9" y="509.5" width="99.3" height="34.33" rx="1.6" ry="1.6" fill="#f4e6c6"/>
        <ellipse cx="791.6" cy="543.9" rx="8" ry="4.6" fill="#8b8683"/>
        <path d="M301,558.8a9.4,9.4,0,0,1,.7-3.1l-13.5-4.8-2.9,7.9Z" fill="#807876"/>
        <polygon points="208.8 369.9 211.1 402.5 227.6 402.5 229.6 369.9 208.8 369.9" fill="#e3dbc9"/>
        <polygon points="207.5 380.6 230.9 380.6 229.6 393 208.8 393 207.5 380.6" fill="#3e54a4"/>
        <rect x="206.9" y="366.6" width="24" height="3.29" fill="#3e54a4"/>
        <rect x="208.8" y="363" width="20.9" height="3.68" fill="#3e54a4"/>
        <circle cx="219.2" cy="386.8" r="4.1" fill="#e3dbc9"/>
        <rect x="625.3" y="484.4" width="5.6" height="51.1" fill="#bfbfc0"/>
        <rect x="606.4" y="481.7" width="41.5" height="5.26" fill="#505252"/>
        <rect x="579.7" y="481" width="96.1" height="4.08" fill="#36a59a"/>
        <rect x="622.4" y="490.4" width="11.7" height="22.66" fill="#505252"/>
        <path d="M593.9,431.5s-15.4,24.9-2.3,39.4l75.8,1.2s6.9-34.5-6.8-40.6l-14-2.1-42.2-1.7Z" fill="#283271"/>
        <rect x="580" y="325.5" width="95.8" height="95.85" rx="8.3" ry="8.3" fill="#72cac3"/>
        <path d="M608.5,311.5s-2.9-.8-14.5,1.2c0,0-12.1-.3-15.4,11.2l-12.8,49.4s-5.6,15.4-2.6,17.9l12.3,4.8s3.6-.4,3.3-4l7.6-45,72.5,5.3,6.5-1.6s9.2-33.6-2.1-34.5a40.5,40.5,0,0,0-15.5-3.8Z" fill="#9dc03b"/>
        <path d="M614.2,306.4s.4,4.1-5.7,5.1l10.5,24,9.2,4.2s12.2-22.2,11.2-33.3Z" fill="#e8cf9c"/>
        <path d="M612,282.4s-5.1-1.6-4.7,4c0,0,.7,7.7,4.7,5.1v12.2a45,45,0,0,0,14.3,12.4,9.3,9.3,0,0,0,7-1.4s6.4-.9,12.6-13.1l.9-2.4s1.2,2.8,3.8,0c0,0,7.8-8.4,1.4-9.8l.3-13.5-8.3-7.4H621.8l-6.7,3.4Z" fill="#f5daa4"/>
        <path d="M591.5,424s-2.8,7.7,2.5,7.5c0,0,46.3-.2,68,0,0,0,5.2-1.4,2.1-7.5Z" fill="#8bab34"/>
        <path d="M590.1,413.3l1.4,10.7s24.7,5.1,72.6,0V410.7h-74Z" fill="#8bab34"/>
        <path d="M608.5,311.5s11.7,22.1,17,24.9c0,0,8.9-6.1,16-22.1l8.3,4.3-23.5,24.8-26.7-27.2Z" fill="#9dc03b"/>
        <polygon points="633.2 327.4 622.7 346.7 634.4 348.9 633.2 327.4" fill="#91ac3d"/>
        <path d="M656.9,270.7s.5,6.8-6.6,22.7l-1.1-2.3s1.4-13.8-1.4-15.9C647.8,275.2,650.3,268.2,656.9,270.7Z" fill="#535555"/>
        <path d="M620.2,271.4s-6.1,7-6.3,15l-1.9-4V266.3s0-9.1,8.2-5.9c0,0-1.9-14.4,18.7-8.1,0,0,10.3,4.9,15.9,14,0,0,7.7-2.8,2.1,4.4C656.9,270.7,646.1,287.3,620.2,271.4Z" fill="#656766"/>
        <path d="M644.6,304s-10.6,6.7-10.9,10.6C633.7,314.6,639.7,312.6,644.6,304Z" fill="#231f20" opacity="0.11" style="mix-blend-mode:multiply"/>
        <path d="M621.8,272.4s13.1,9.2,26,4.8c0,0,5.8-2.5,9.1-6.5,0,0-4-1.1-10.3,2.6C646.6,273.3,628.6,268.4,621.8,272.4Z" fill="#79797a"/>
        <path d="M635.4,327.9l-.8-11.2s-2.2-3,8.2-8.2c0,0,4.7-2.8,5.1-7.9,0,0,3.4-4,4,5.1,0,0,1.2,6.3-2,8.1l-5.9,5.6.5,10Z" fill="#f5daa4"/>
        <path d="M645.7,325.8s-6.8,3.2-12.8,1.8l-2,30.9,18.9-.9S648.9,322.2,645.7,325.8Z" fill="#b9c683"/>
        <path d="M663.3,316.2s-9,1-15.5,38.1l17.6-3.6S675,318.4,663.3,316.2Z" fill="#b9c683"/>
        <path d="M585.4,315s-5,67.6-11.7,80.4l-10.5-4.2s-1.8-1.8-.3-7.8l15.7-59.5S581,315.3,585.4,315Z" fill="#b9c683"/>
        <path d="M578.2,402.5H559.7s-2.1-7,8-6.5C567.7,396,578.2,394.9,578.2,402.5Z" fill="#6d6e71"/>
        <path d="M567.1,396s-.5,4.9-4.8,2.2c0,0-2.7-1.5.9-7,0,0,17-1.2,12.4,7.2,0,0-1.8,2.3-4.9-1.3C570.7,397.1,567.5,394.6,567.1,396Z" fill="#f5daa4"/>
        <polygon points="668.9 346.9 586.4 347 587.7 402.5 668.9 402.5 668.9 346.9" fill="#d2d2d1"/>
        <polygon points="586.4 347 654.5 400.6 589.1 400.6 586.4 347" fill="#b6b7b8"/>
        <rect x="585.4" y="400.6" width="85.3" height="1.87" fill="#d2d2d1"/>
        <rect x="576.4" y="469.6" width="103.4" height="12.15" rx="6.1" ry="6.1" fill="#72cac3"/>
        <path d="M609.9,467.5l-1.1,52h3.7L608.2,559H594.5l-2.1-39.5-2.3-62.8c-4.2-23.1,13.7-22.4,13.7-22.4,17.6,1.2,19.7,17.7,19.7,17.7C620.2,468.6,609.9,467.5,609.9,467.5Z" fill="#344a9d"/>
        <path d="M667.5,462.3l-2.2,57.2L662.5,559H647.9l-3.4-39.5h4.1l-1-46.4s-10.3,1.1-13.5-15.4c0,0,2.1-16.6,19.6-17.8C653.7,439.9,671.7,439.2,667.5,462.3Z" fill="#344a9d"/>
        <path d="M650.4,559h-2.5l-3.4-39.5-2.6-25.2s-7.4-24.3-7.8-36.6c0,0,7.7,13.3,13.5,15.4l1,46.4Z" fill="#214298"/>
        <path d="M612.5,519.5l3.1-30.8s7.4-24.3,7.9-36.7c0,0-7.7,13.4-13.6,15.5l-1.1,52Z" fill="#214298"/>
        <path d="M622.7,295.7l-4.2-.6a5.8,5.8,0,0,1-4.9-6.6l.8-5a.6.6,0,0,1,.8-.6l11.3,1.7a3.9,3.9,0,0,1,3.2,4.4l-.3,1.9A5.8,5.8,0,0,1,622.7,295.7Zm-7.3-9.4-.4,2.4a4.4,4.4,0,0,0,3.7,5l4.2.6a4.4,4.4,0,0,0,5.1-3.6l.3-1.9a2.5,2.5,0,0,0-2.1-2.8l-8.6-1.3A1.8,1.8,0,0,0,615.4,286.3Z" fill="#71892e"/>
        <path d="M642,298.8l-4.2-.7a5.8,5.8,0,0,1-4.9-6.6l.3-2a3.8,3.8,0,0,1,4.4-3.1l11.2,1.7a.9.9,0,0,1,.7.9l-.8,5A5.9,5.9,0,0,1,642,298.8Zm-4.6-11a2.4,2.4,0,0,0-2.8,2l-.3,1.9a4.4,4.4,0,0,0,3.7,5l4.2.7a4.5,4.5,0,0,0,5.1-3.7l.3-2a2.3,2.3,0,0,0-2-2.6Z" fill="#71892e"/>
        <path d="M633.7,288.9c-1.2-1.3-2.4-1.7-4.4-.6s-2.8-3.6-2.8-3.6c3.4.8,10.7,1.7,10.7,1.7S634.2,289.4,633.7,288.9Z" fill="#71892e"/>
        <path d="M339,244.6a4,4,0,0,1,2.4,1.4,6.9,6.9,0,0,1,1.3,3.7c2.9,21,5.9,41.9,8.8,62.9.1.4,16.4,2.8,18,3.2,5.5,1.3,12.5,3.1,17,6.9-1,1.4-2.9,4.1-4.8,4.4a3.7,3.7,0,0,1-1.8,0,312.6,312.6,0,0,1-32-6.5c-1.8-.5-3.7-1-5-2.4s-1.8-3.3-2.3-5.2l-10.5-45a21.2,21.2,0,0,1-.6-4.4,24.5,24.5,0,0,1,.8-3.7l4.5-15.3A11.9,11.9,0,0,1,339,244.6Z" fill="#b57460"/>
        <path d="M277.8,233.1s-5.9.9-11.7,11.5L242,278.4s-7,5.6-2.5,12c0,0,19,50.2,23.7,50.2l8.3-6.5.2-4.7-6.8,3s-1.1.5-1.8-3.5c0,0-8.4-38.5-15.2-39.2,0,0,15.2-16.4,22.9-25.7l15.4-13.3V235.3Z" fill="#b57460"/>
        <path d="M317.3,363.4l-24.2,28.8-2.9,48.9-2.8,31-8.7,9.6,2.4.7,5.8-4.4-1.4,41.5-.9,34.4H275l-1.1-12.1a52.6,52.6,0,0,0-4.3-16.1,26,26,0,0,1-2-6.2c-1.3-8.1-2.3-20.2,1.5-26.9,0,0,1.2-18.1-.7-26.1L258.9,396s-11.5-24.3-.3-41.7c12.7,4.7,31.6,6.8,45.3,7.8h.1Z" fill="#048298"/>
        <polygon points="278.7 481.7 287.4 472.1 286.9 478 281.1 482.4 278.7 481.7" fill="#048298"/>
        <path d="M319.8,360.3h0l-1.8,2.4-.4.6c-5.3,7.1-18.2,24.2-24.5,28.8l24.2-28.8L304,362.1h-.1c-13.7-1-32.6-3.1-45.3-7.8l38.5,2,17.4.9Z" fill="#048298"/>
        <polygon points="287.4 472.1 286.9 478 281.1 482.4 278.7 481.7 287.4 472.1" fill="#027086"/>
        <path d="M330,470.9a318.3,318.3,0,0,0-18,48.6l-9.7,30.1-9.2-3.4,2.5-17.5v-9.2a55.6,55.6,0,0,1,2.3-20.5,147.4,147.4,0,0,1,13.9-28.1s4.8,4.3,8,1.2l-6.5-3.5s-19-48.6-20.2-76.4c6.3-4.6,19.2-21.7,24.5-28.8l2.2.3h.6l5.8,34.7s4.4,37.4,3.7,58.5C329.9,456.9,332.8,467.4,330,470.9Z" fill="#048298"/>
        <path d="M313.3,468.6l6.5,3.5c-3.2,3.1-8-1.2-8-1.2Z" fill="#007487"/>
        <path d="M320.4,363.7h-.6l-2.2-.3c-5.3,7.1-18.2,24.2-24.5,28.8l24.2-28.8.5-.6,2-2.4h0l.5,2.6Z" fill="#007487"/>
        <path d="M319.8,472.1c-3.2,3.1-8-1.2-8-1.2l1.5-2.3Z" fill="#006071"/>
        <polygon points="322.4 222.8 322.4 239.9 313.3 261.9 297.4 232.6 308.5 213.5 322.4 222.8" fill="#a86b59"/>
        <path d="M342.3,198.5s4-3.7,2.5,3.6c0,0-3.3,7.2-6.7,6.1,0,.8-11.2,17.1-20.6,15.4,0,0-11.4-5.1-14-22.6,0,0-1.9,1.4-3.4-1.8,0,0-3.4-12,1.7-11.2l26.3-13.6,11.4,4.2,4,5.6Z" fill="#b57460"/>
        <path d="M360.7,313.3s-1.5,11.5-7.4,11.1c0,0-16.2-1.7-16-13.1,0,0-7.5-38.6-7.5-49.4l3.5-16h10.3s6.5,23.9,5.9,42.6l4.1,22Z" fill="#e5d8b8"/>
        <path d="M332.7,256.9s-.1,14.3,2.9,21.4a17.1,17.1,0,0,1-1.3,7.8,3.6,3.6,0,0,1-.4.9l-.8,1.2c-2.4,3.4-7,5.5-16.1,2.4,0,0-6,8.5-5.1,25.6,0,0-.3,29.4,11.1,41.6,0,0-4.6,4.4-1.8,5.1h-3.4c-3.1-.1-8-.3-13.8-.7h-.1c-13.7-1-32.6-3.1-45.3-7.8,0,0-3.2-.2,0-6.5,0,0,1.3-3.7,2.8-8.7.7-2.4,1.5-5.2,2.2-8a80.8,80.8,0,0,0,2.7-12.9s8.9-42.7,4.5-54.2c-.1.8-16.3,27.1-19.6,24.5s4.7,7.3,3,10-4.8,7.7-8.6,7.4h-.5c-3-.6-4.4-4.5-5.2-7a47,47,0,0,1-2-11.2c-.4-6.1,2.8-9.5,6.1-14.5,5.5-8.2,9.6-16.9,15.8-24.5,4.3-5.2,10.3-13.2,17.1-15.3h.1l.8-.2a37,37,0,0,1,9.1-1.9,23.8,23.8,0,0,1,6.5.2,26.4,26.4,0,0,1,4,1.2L314,260.1l8.4-20.2s16.3.6,21.2,6l-1.6,1C339,249,332.9,253.6,332.7,256.9Z" fill="#f4e5c3"/>
        <path d="M333.4,179.1l7.5,7.1-.8,14.5s1.2,0,2.2-2.2c0,0,3.1-2.7,2.8,1.3,0,0-1.3,8.2-7,8.4l-2.8,4.1s.5,5.5-.4,8.1c0,0,1,1.8,4.4-2.4,0,0,8-10.9,9-18.5,0,0,4.1-19.3-3.2-28.7,0,0-9.7-12.2-17.2-5.4,0,0-8.6-7.2-18,2.9,0,0-10.3,4.5-12.5,22.2,0,0-2.2,10.2,0,24.4,0,0-1.7,6.5-5.9,9.3,0,0-14.9,14.6-1,34.6,0,0,4.5,8.3,3.9,11.1,0,0,2.3,6.3,3-2,0,0,1.1-14.7-3.5-22.9,0,0-3-16.1,2.9-22.2,0,0,4.9-8.7,11.6-8.8,0,0-3.2-3.7-4.9-13,0,0-1.7,1.7-3.4-1.8,0,0-2.2-10.2,1.4-10.6,0,0,2.8-.5,3.3,5.5,0,0,.1,3.6,2.3.8a25,25,0,0,0,6.3-8.5s7.6,2.8,9.8-1.3c0,0,4-5.8,4,4,0,0,7.4,1.7,8.1-2C335.3,187.1,335.6,181.6,333.4,179.1Z" fill="#56443e"/>
        <path d="M334.3,285.8a6.7,6.7,0,0,1-.4,1.2,10.3,10.3,0,0,1-.7,1.7,13.7,13.7,0,0,1-13.5,8.1s-6.3,12.8-5.2,25.7c0,0,3.2,23.9,8.5,35.3,0,0,2.3,5.6-2.6,5.9h-.6l-2.2-.3h-.3L304,362.1h-.1l-4.3-.4-2.5-5.4c-4.5-9.9-13.6-31.5-16-47,0,0,3.5-20.5,10-26.5,0,0,31.9,3.9,41.7,3.2Z" fill="#dfd3b4"/>
        <path d="M416.9,485.7v6h0v27.8h-5.5V485.7Z" fill="#bfbfc0"/>
        <rect x="392.5" y="483" width="41.5" height="5.26" fill="#505252"/>
        <rect x="408.4" y="491.7" width="11.7" height="22.67" fill="#505252"/>
        <rect x="367" y="482.3" width="96.1" height="4.08" fill="#36a59a"/>
        <rect x="367.7" y="314" width="94.6" height="109.32" rx="6.7" ry="6.7" fill="#72cac3"/>
        <path d="M411.3,246.6s-30.2-1.9-25.6,38.4a42.2,42.2,0,0,1-4.7,24.4c-2.6,4.9-5.5,10.1-7.4,13l76.9.7a76.2,76.2,0,0,1-8.1-25.1c-1.8-12.6,4-25.1-1.6-37.1-4.4-9.4-13.6-16.6-24.4-15.1Z" fill="#5a3119"/>
        <rect x="362.1" y="469.8" width="106.5" height="12.62" rx="6.3" ry="6.3" fill="#72cac3"/>
        <polygon points="389.5 429.9 387.5 470.1 450 474 450 427.5 389.5 429.9" fill="#dd5a41"/>
        <polygon points="383.9 410.5 384.1 431.8 395.6 440.3 439 440.3 443 428.3 444.6 410.2 383.9 410.5" fill="#897e7b"/>
        <path d="M391.8,279.5s-6.1,2.1,0,9.8a2.9,2.9,0,0,0,2.6,0s2.8,13.6,8.8,13.6l-2.4,17.5.6.5a16.8,16.8,0,0,0,21.5.6l1.4-1.1V302.6s5.1-.9,7.9-12.6c0,0,1.2,1.6,3.1-.2,0,0,6.7-7,1.4-8.4l-3.3-14.3L412.1,257l-15.4,9.4Z" fill="#fbc6b0"/>
        <path d="M433,277.9s.8,5.8,3.7,3.5v-7.6s4.9-13.1-2.6-20.2a29.8,29.8,0,0,0-22.8-7s-17.7,4-19.6,13.8c0,0-2.8,10.1.1,19.1h0s1.6,1.7,2.5-1.4l.9-4.2s11.7-20.7,16.9-16.9c-.8-.5,4.4-.7,15.4,8.5,0,0,3.7,8.3,5.5,8C432.1,273.3,433,277.9,433,277.9Z" fill="#5a3119"/>
        <path d="M480.4,385.8,454,400l-4.7-10.9c8.2-12.6,20.1-12.9,20.1-12.9l-17.1-23.4-17.1,3.7L419,358.2l1.3,2.7-43.7.8-8.4,23.6,15.9,2.9-4,13.4-19.1-.8c-13.1-2-9.6-14.3-9.6-14.3l14.5-56.2A15.1,15.1,0,0,1,377,317.9l14.5-2.8c4.5,2.9,12.3,10.4,12.3,10.4l11.2,2.6c8.1-13.4,14.7-14.1,14.7-14.1,21.9.7,29.2,11.9,29.3,13.6l26.3,46.2C487.4,380.8,480.4,385.8,480.4,385.8Z" fill="#908581"/>
        <polygon points="381 341.2 378.1 350.5 383.9 351.7 381 341.2" fill="#7e7471"/>
        <polygon points="447 342.4 444 351.6 452.3 353.9 459.6 362.3 447 342.4" fill="#7e7471"/>
        <path d="M396.7,314.2l-5.2.9s7.3,14.5,21.4,14.1c0,0,17.5-.8,21.6-14.9l-4.8-.3Z" fill="#756c69"/>
        <rect x="373.6" y="345.7" width="83.9" height="56.78" rx="2" ry="2" fill="#f1f2f2"/>
        <path d="M396.7,314.2s3.1,13.9,22,10.3a13.4,13.4,0,0,0,11-10.5l-5.4-.6-8.8.6-13.8-.6Z" fill="#fbc6b0"/>
        <polygon points="407.1 532.5 417.4 552.7 416.8 553.9 414.7 558.8 401.3 558.6 404 546.2 407.1 532.5" fill="#e46d5d"/>
        <path d="M467.1,440.2c-.6,6.7-4.1,12.6-6.8,18.6-1.6,3.7-3.2,7.3-4.7,11s-3.7,8.3-5.5,12.5h0l-1.7,3.8c0,.1-.1.1-.1.2l-14.4,33.1-5.7,11.4-2.9-11.4-5.2-15.4v10.2h-3.2v5.2h-5.5v-5.2h-.3l.3-1.1,2.5-11.5h.1l2.4-8.3a9.8,9.8,0,0,0,.5-1.6h0c.4-1.2.7-2.3,1.1-3.4l.6-1.9c.3-1.1.6-2.2,1-3.4a1.4,1.4,0,0,1,.2-.6h0l3.1-10,.7-2.5c2.4-7.7,4.7-15.4,6.8-23.1l.5-2.1,1.2-4.3h0c.3-1.3.7-2.6,1-3.9.8-3,1.9-6.1,3.9-8.4a4.6,4.6,0,0,0,.7-.7,13.8,13.8,0,0,1,5.7-3.3,16.9,16.9,0,0,1,4.5-.7c5.9,0,12,3.2,15.8,7.8C466,433.8,467.4,437.1,467.1,440.2Z" fill="#e46d5d"/>
        <path d="M413.9,501.6h0Z" fill="#e46d5d"/>
        <path d="M435.5,558.8H420.4l-3-6.1,1.7-3.5-10.5-23.4-1.5,6.7-6.6-12.9h5.2l-12.4-31.2h-.8v-1.9h-10l-2.1-4h-.1l-6.7-12.5L368,459.6c0-.1,0-.2-.1-.2a20.1,20.1,0,0,1-1.3-2.5c-7.1-15.1,7-25.4,7-25.4a20.5,20.5,0,0,1,10.5-1.6,21.8,21.8,0,0,1,5.3,1.5,22,22,0,0,1,8.6,7l.6,1.9.3.8,1.4,4.2,8.2,24.5.6,1.6,3.6,10.9h.1l.2.6.9,2.7.2.7.7,1.9,1.1,3.4.5,1.6.5,1.5,3.2,9.3,5.2,15.4,2.9,11.4Z" fill="#f37363"/>
        <polygon points="423.5 558.8 420.4 558.8 417.4 552.7 407.1 532.5 407.1 532.5 400.5 519.5 382.5 486.4 380.4 482.4 380.3 482.3 373.6 469.8 367.9 459.4 366.6 456.9 382.2 460.7 385.9 469.8 390.9 482.3 390.9 482.4 392.5 486.3 392.5 486.4 393.3 488.3 405.7 519.5 405.8 519.5 408.6 525.8 419.1 549.2 423.5 558.8" fill="#e56458"/>
        <path d="M398.9,441.1l-8.5,11.6s.3,3.3,4.2-1.4l5.7-6Z" fill="#e56458"/>
        <path d="M432.1,440.3s3.4,14.2,5.5,16.6c0,0-4.4-2.1-7.2-10.2Z" fill="#d95f53"/>
        <path d="M465.3,434.8l-8.6,12.7s-2.1,2.8,3,1.1l6.7-6.6S467,435.7,465.3,434.8Z" fill="#d95f53"/>
        <path d="M403.2,302.9s9.9,10.9,21.1-.3v8.3s-9.2,11.8-22.2,1.5Z" fill="#e8b8a4"/>
        <path d="M412.1,257.7s-.7,18.6,20.9,20.2c0,0,5,3.9,7.6,0,0,0,.7-1.2-4.8-13.7C435.8,264.2,424,244.2,412.1,257.7Z" fill="#714026"/>
        <path d="M412.1,257s-16.7-9.7-20.8,19.4C391.3,276.4,402.1,273.5,412.1,257Z" fill="#714026"/>
        <rect x="956.3" y="486.6" width="6.2" height="48.84" transform="translate(1918.9 1021.9) rotate(-180)" fill="#d2d2d1"/>
        <path d="M939.9,544.9l-8.3,11.3-23.4-36.7c-16.5-21.1-39.9-59-39.9-59-15.3-15.1,0-27,0-27,3.3-7,74.3-4.1,74.3-4.1l-51.4,17.7c10.5,5.3,29.1,56.6,34.6,72.4C937.2,543.7,939.9,544.9,939.9,544.9Z" fill="#0a8ca3"/>
        <path d="M997.3,314.9s11.5,7.9,15.7,30.8c0,0,6.7,28.8,1.8,51.4l-7.8,33.5-23.5-8s-14.5-2.8-16.3-4.2c0,0-1.7-2.8,1.4-6.5,0,0,3.1-26-1.9-34.2,0,0-10.7-24.5-3.5-38L988.7,314Z" fill="#f2ae2e"/>
        <path d="M986.3,305.7l-9.1-12.8s-.9-4.6,2.2-17.1c0,0,3.1-30.8-27.1-29.9,0,0-29.9,3.4-27.4,29.9,0,0,1.5,4,4,9.7l5.3,2.8-.6,11s1.7,2.2,5.6,1.1l4.4,4.1,1.8,4a18.5,18.5,0,0,0,16.6-2.6s1.7-1.5,2,3.5c0,0-1.6,4.1,1.2,6l.8,11.8,23.7-18.4Z" fill="#683a22"/>
        <path d="M938.1,284.4s-8.7-2.2-9.5,3.5a2.7,2.7,0,0,0,3.7-.7S940,286.1,938.1,284.4Z" fill="#121111"/>
        <path d="M964,280.9l7.6,10.9s4.7,8.3-15.7,18.6c0,0-8.9,9.2-10.5-1.9,0,0,5.8,2.5,5.2-3.1l-3.3-3s-3.4-.1-5.4,1.7c0,0-2.6.4-1.8-2.9,0,0,5.3-3.6,9.7-1.7,0,0,3.5,5,6.2,4.2,0,0,8.8-4.5,2.7-12.8,0,0,6.2-3.7,1.5-12.6C960.2,278.3,962.4,276.1,964,280.9Z" fill="#121111"/>
        <path d="M990.8,304.2c2.4,2.4,8.2,8.1,8.4,9.8,0,0-30.5,14.6-37.6,33,0,0-.4-14.2,4.3-21.1l22.7-21.7A1.8,1.8,0,0,1,990.8,304.2Z" fill="#db9e29"/>
        <path d="M992.2,349.7s8.8,7.1-23.3,35.3a32.7,32.7,0,0,0-2.8-8.9l2.5-17.5,16.1-8.9Z" fill="#db9e29"/>
        <path d="M876,381.7s-24-2.4-32.2,1.7c0,.5-13.3,4.2-15.4,11.3a5.8,5.8,0,0,0,4.1-.8s7.2-6.2,12.4-5.4c0,0-8.1,5-6,7.1,0,0,2,.7,5-2.1,0,0,2.8-2.6,4.8-2.7,0,0,5,1.5,11.8-2.5,0,0,16.7-1.1,19.4,2.1Z" fill="#683a22"/>
        <path d="M907.1,346l28.8,29.6,4,10.8L922.5,385l-23.3-29.9S901.5,346.4,907.1,346Z" fill="#db9e29"/>
        <path d="M992.2,349.7s-18.5,22.9-33.9,31.8c0,0-17.3,17-24.8,16.8,0,0-15.2,1.6-60.7-9.6,0,0-.3-7.7,2.3-9.8,0,0,52.6-1.2,53.5,3.5,0,0,28.7-27.1,32.1-29.7,0,0,6.5-15.6,15.4-17.9C976.1,334.8,995.7,330.8,992.2,349.7Z" fill="#f2ae2e"/>
        <path d="M965,376.9s-19,21.7-29.6,21.5c0,0,50-41.7,56.8-48.7A184.2,184.2,0,0,1,965,376.9Z" fill="#db9e29"/>
        <path d="M899.2,337.1l6.4,9.2-4.6,9.4-6.1-9.3s-5.1,1.4-13.9-3.2l10.7-14.6s-3.5-3.8-1.2-5.8c0,0,2.3-3.5,7.6,3.7A15.3,15.3,0,0,1,899.2,337.1Z" fill="#683a22"/>
        <polygon points="878.3 314 870.1 338.8 882.2 345 895.6 322 878.3 314" fill="#e7dccc"/>
        <polygon points="875.9 321.3 892 329.9 886 339.5 871.4 332.7 875.3 320.9 875.9 321.3" fill="#3e54a4"/>
        <polygon points="879.6 310.5 877.3 313 877.3 314.4 895.6 323.3 896.8 322.8 897.5 319.4 879.6 310.5" fill="#3e54a4"/>
        <polygon points="879.9 310.7 882.1 307.4 898.3 315.4 897 319.1 879.9 310.7" fill="#3e54a4"/>
        <circle cx="881" cy="330.3" r="4.1" fill="#e7dccc"/>
        <path d="M898.1,326.5s-4.7-6.9-8.7-4.2c0,0-2.5,3,2.6,5.8l6.3-1.3Z" fill="#683a22"/>
        <polygon points="785.6 394.6 851.3 395.7 851.3 398.4 783.5 398.4 761.3 327.2 764.6 327.2 785.6 394.6" fill="#d2d2d1"/>
        <polygon points="851.3 398.4 851.3 402.5 782.6 402.5 760.2 330.2 761.3 327.2 783.5 398.4 851.3 398.4" fill="#656766"/>
        <path d="M966.8,417s-3.8,3.3-3,7.4c0,0,41.5,14.7,43,13.3a11.3,11.3,0,0,0,.2-7.1Z" fill="#f2ae2e"/>
        <path d="M1031.2,395.7h4l-21.8,82s-.1,3.3-4.8,3.3H905.3v-4h103.9Z" fill="#36a59a"/>
        <path d="M1030.8,397s-6.5-5-8.6,12.4l-14.7,60H912.6s-9.4,2.1-5.2,7.6h101.8Z" fill="#7bced1"/>
        <rect x="933.6" y="481" width="53.1" height="6.61" transform="translate(1920.3 968.7) rotate(-180)" fill="#656766"/>
        <rect x="953.9" y="490" width="11.4" height="23.37" transform="translate(1919.1 1003.3) rotate(-180)" fill="#656766"/>
        <rect x="209.9" y="413.3" width="8.7" height="145.55" fill="#71583f"/>
        <rect x="807" y="413.3" width="8.7" height="145.71" fill="#71583f"/>
        <polygon points="203.6 330.1 206 331.5 173 397.3 171.1 396.7 203.6 330.1" fill="#656766"/>
        <polygon points="206 331.5 206.7 333.4 173.9 403.2 104.4 403.2 104.4 397.3 171.1 396.7 173 397.3 206 331.5" fill="#d2d2d1"/>
        <path d="M172.9,292.7s10.1,2.8,16.1-5l-2.5-3.3-10.7-1.9Z" fill="#a37144"/>
        <path d="M191.4,267.9c.2-.2,11.7,13.3,11.7,13.3s-8.3,7.6-17.3,11.7L180,284S188.9,272,191.4,267.9Z" fill="#ed308a"/>
        <path d="M150.8,295.8l18.2-8s2.4-7.4,8.9-7.8h6.2s4.1-.1,1.9,2.7a24.1,24.1,0,0,1-5.5.9s1.3,4-3.2,5.8c0,0,0,2.1-5.1,3.7l-22,13.7Z" fill="#b87f4d"/>
        <path d="M107.5,234.2s.3,2.9-7.6,6.8c0,0-4.4,2.4-2.1,4.3h7l8.6-5Z" fill="#1a1a1a"/>
        <path d="M158.7,225.4s-1.8,11-3.9,12.1c0,0-1.9,4.7-1.7,5.4v6.6s.7,2.3-4.2,1.8c0,0-.9,12.2-8.8,9.4,0,0-6.6-3.1-8.5-7.3,0,0-6,4.4-9.3,15.1h-8.9l-8.8-10,8.8-18.2,3.5-24.7,20.8-9.4Z" fill="#b87f4d"/>
        <path d="M135.1,229.9c-1.3-1.8-3.1-6.4-7.1-2.2,0,0-7.6,38.1-27.9,19.4,0,0-5.1-2.3,0-4,0,0,9.6.8,7.2-17.5,0,0-4.6-24.7,20.4-27.8,0,0,23.5-1.4,34.2,18.4,0,0,6.4,8.5,1.1,18,0,0-5.8,0-16.4-3.7,0,0-3.2-8.7-8.3-.5A2,2,0,0,1,135.1,229.9Z" fill="#333"/>
        <path d="M126,274c2.2,2.7,5.2,12.3,6.9,15.3s2.7,6.8,4.9,8.9.8,2.2,4.6.7a45.7,45.7,0,0,0,4.7-2.9c2.6-1.5,5.4-5,7.9-5.6.7,3.3,4.6,12.2,3.6,15.3s-11.5,6.9-15.2,8.2c-8.2,2.9-10.8,4.1-15.7-3.5-3.8-5.9-7.3-10.1-10.4-16.7s-6.7-14.6,2.6-15.7C123.4,277.6,124.4,271.7,126,274Z" fill="#f15b5d"/>
        <path d="M102.2,255.5c-16,0-26.3,12.6-32.2,26S60.1,306,49.9,316.3c-1.6,1.7-6.5,4.4-6.9,6.8s3.2,7.7,4.9,9.9c6.3,8.1,13.1,17.3,23.7,18.4,4,.5,7.7.3,10.6-1.6s4.7-7.5,7.1-12c4-7.6,11.1-16.6,19-18.6s12.3-4.8,14.5-12.1c1.7-5.4.4-11.1,1.4-16.6s4.4-10.1,3.2-15.4-3.5-6.5-5.7-6.7-3.6,1.4-6,.1c-3.9-1.9-6.4-8.3-9.6-10.1C104.5,257.5,103.4,256.2,102.2,255.5Z" fill="#f37a6e"/>
        <path d="M116,316.1a38.1,38.1,0,0,1-8.4,3.3s-8.7,2.9-11.5,8.2c0,0-10.5,22-13.9,22.2,0,0,.8-1.2-8.5-5.9l24.1-31.2S107.6,317.7,116,316.1Z" fill="#da5254"/>
        <path d="M93.9,355.9c3.3,8.9,4.9,15,9,24,1.6,3.6,4,12.2,7,14.8,4.8,4.1,9.8,1.6,15.2.7s7.4,1.8,13,2a2.1,2.1,0,0,0,2.2-1.7.7.7,0,0,0-.2-.6c1.6-.2,5.6,1.7,6.6.6s-4.1-2.8-5.5-3.6c-3.8-2-5.8-3.5-10.2-3.9s-5.4-.7-9-.4-4.8,1.4-6.7,0-2.4-3.9-2.8-5.9l-3.2-15.4c-1-4.8-1.6-10-3.7-14.5C101.8,343.5,96.3,351.7,93.9,355.9Z" fill="#b87f4d"/>
        <path d="M46.8,510.2l-2.3,9.3L33,558.7H23.3c1.1-3.9,3-16.5,2.9-18.5-.1-6,2.7-20.7,2.7-20.7.7-5.4,3-21.3,6.2-37.9h8C44.2,492.2,45.7,502.7,46.8,510.2Z" fill="#a37144"/>
        <path d="M63.6,448.7s-.3,1.2-.9,3.2l-4.9,17.8c-.8,2.7-1.5,5.5-2.3,8.4-.3,1.2-.7,2.3-1,3.5s-1.1,4.2-1.7,6.3c-2.2,8.2-4.4,16.1-6,22.3-1.1-7.5-2.6-18-3.7-28.6h-8c.2-1.2.5-2.3.7-3.5s1.1-5.2,1.6-7.8c1.4-6,2.8-11.8,4.3-17a68.2,68.2,0,0,1,5.7-14.5,4.4,4.4,0,0,0,.6-1.6c.2-.9.5-2.7.9-4.8a4.3,4.3,0,0,0,.2-1.1,99.4,99.4,0,0,0,1.5-11.4v-2.5c-.4-5.9,16.9,12.6,16.9,12.6a17.6,17.6,0,0,1,.4,2.1v1.1C68.1,436.5,67.5,442.2,63.6,448.7Z" fill="#a37144"/>
        <path d="M104.2,271.7c-4.5-4.9-10.9-9.2-17.5-3.3-4.7,4.1-7,12.2-7.5,17.9a100.1,100.1,0,0,0,5.5,43.5c1.4,3.7,3.1,7.5,3.7,11.5.8,5.5-.2,11.5,2.5,16.5,3.6-1.3,5.6-4,9.4-4.8s6.1-.4,9.2-.6c.2-2.8-2.5-4.7-3.4-7.3a39.1,39.1,0,0,1-1-6.6c-.5-5.1-1.4-10.2-1.9-15.4-1.2-11.9-2.9-26-.6-37.8C103.7,279.7,103.5,274.8,104.2,271.7Z" fill="#f15b5d"/>
        <path d="M65.3,558.7H55.2c-.3-6.1-2.8-19.1-2.8-19.1-1.9-3-4.2-20-4.2-20-.3-2-.8-5.2-1.4-9.3,1.6-6.2,3.8-14.1,6-22.3H63.4c.2,13.6.4,26.3.4,31.6Z" fill="#b87f4d"/>
        <path d="M63.3,481.6c0,2.1,0,4.2.1,6.3H52.8c-2.2,8.2-4.4,16.1-6,22.3-1.1-7.5-2.6-18-3.7-28.6l-.3-3.5c-.3-2.7-.5-5.3-.7-7.9a165.7,165.7,0,0,1-.4-16.9,53.8,53.8,0,0,1,1.2-10.1,35.5,35.5,0,0,0,.6-5.6c-.1-1.2-.3-3.3-.6-5.8,0-.3-.1-.6-.1-1-.6-4.6-1.4-10.1-2.5-13s4.7-.7,10.3,2.1,9.5,5.1,9.5,5.1a14,14,0,0,1,3,7c.1.4.1.8.2,1.2a25.2,25.2,0,0,1-.8,9.5s.1,3.6.2,9.2.2,11,.3,17.7c.1,2.8.2,5.6.2,8.5C63.2,479.3,63.2,480.4,63.3,481.6Z" fill="#b87f4d"/>
        <path d="M77.3,356.9c-.1,20,7.2,48.6.1,67-.1.3.3,1.7-1.7,7.8-7.1,1.3-33.4-.9-40.5-1.5-.8-3.4-4.1-2.2-5-6.1s1.5-10.9,3.5-14.8c4.2-8.5,7.3-17.4,10.4-26.1a235.3,235.3,0,0,0,7.2-23c1.4-5.8,4.5-18.9,12-19C69.1,341.2,79.6,353.2,77.3,356.9Z" fill="#684b39"/>
        <path d="M43,326.5c-1.3-1-9.6,9.4-10.5,10.6A43.8,43.8,0,0,0,26.2,351c-3.2,12.6-2.6,25.7-.7,38.5.9,6.3,2.6,12.5,3.3,18.8.4,3.2-2.1,22.5,3.6,22.6s36.7,4.6,43.3.8c-1.6-6.4-5.6-13.1-7.8-19.5s-3.8-12.2-6.3-18.1-6.8-11.4-5.4-17.7,7.5-9.6,12-12.4c7-4.3,11-6.9,14.4-14.8-8.5-5.9-17.8-9.2-26.4-14.6C51.4,331.6,47.2,329.6,43,326.5Z" fill="#745a45"/>
        <path d="M106.3,255s-9.6-.3-6.3,2.3,4.6,6.2,6.7,9.5,2.6,3.7,3.9,5.7l2.6,4.1c.7,1.1,1.4,2.7,2.8,3.1s2.1-.4,2.8-1.3a15.4,15.4,0,0,0,2.1-4.7c.6-1.6,1.3-3.3.5-5,0,0,4.8,10,6.2,10.1s1.6-4.1-3.2-10.3l-1.4-2.1S114.9,271.4,106.3,255Z" fill="#f15b5d"/>
        <rect x="72.3" y="487.9" width="4.9" height="47.48" transform="translate(149.4 1023.3) rotate(-180)" fill="#d2d2d1"/>
        <path d="M35.9,470.4s95.2-3.7,95.9,2.8c0,0,2.6,3.3-.4,4.9H32L8.7,395.4s4.9-2.4,8.4,5.8Z" fill="#72cac3"/>
        <path d="M131.8,481.6H28.1L5.4,395.4c1.2-4,3.3,0,3.3,0L32,478.1h99.4C134.2,479.1,131.8,481.6,131.8,481.6Z" fill="#36a59a"/>
        <rect x="48.4" y="481.6" width="52.6" height="6.31" fill="#656766"/>
        <rect x="69.1" y="491" width="11.1" height="23.6" transform="translate(149.2 1005.5) rotate(-180)" fill="#656766"/>
        <polygon points="939.3 545.6 946.6 550.3 939.3 559 932 559 932 555.7 939.3 545.6" fill="#f2ae2e"/>
        <rect x="107.8" y="408.1" width="810" height="5.14" fill="#71583f"/>
        <rect x="100.8" y="402.5" width="823.6" height="5.61" fill="#ba8259"/>
        <path d="M956,559l1.3-1.2-1.8-1.6s-2.6-7.1-8.6-6l-1.8-2s-2.7,7.4-9,10.8Z" fill="#908380"/>
        <polygon points="608.8 519.5 607.3 559 608.2 559 612.5 519.5 608.8 519.5" fill="#214298"/>
        <path d="M288,558.8c1.6-1.5,2.3-3.6-3.4-4.9H275s-9.1-.6-5.4,4.8Z" fill="#dce1c1"/>
        <path d="M293.7,546s-10.2-4.4-5.8,5l13.4,4.9s9.9-1.2,1.4-6.6Z" fill="#d4dbb3"/>
        <path d="M970.8,469.7s-34.2.8-65.7-8.1c-.6.8-9-.9-12.9-.9.8,0,.3,5.6-5.9,3.7,0,0,2.8,9.5-13.6,25.1,0,0-12.8,17.2-24.4,30A165,165,0,0,0,816.4,559H795.1l25.5-39.5,43.1-66.1s1.5-19.2,20.4-19.5c0,0,48.4-6.4,71.2-7.3,0,0,7.9-2.4,8.5-2.2l41.2,13.4S1011.3,472.7,970.8,469.7Z" fill="#00adc0"/>
        <path d="M970.8,469.7s-34.2.8-65.7-8.1c-.6.8-9-.9-12.9-.9.8,0,.3,5.6-5.9,3.7,0,0,2.8,9.5-13.6,25.1,0,0-13,17.3-24.4,30-15.1,12.9-26,29.4-31.9,39.5h-13a147.4,147.4,0,0,0,8.7-13.4c1.9-5.7,16-26.1,16-26.1,10.4-9.1,20.5-18.3,28.3-29.9,5.3-7.9,11.1-15.6,16.1-23.7s12-13.7,21.5-13.9a10.6,10.6,0,0,0,4.5-.9c15.6,1,31.1,2.6,46.9,2.8s37.2-1,45.1-17.2a11.1,11.1,0,0,0,1.1-3.2l13.4,4.3S1011.3,472.7,970.8,469.7Z" fill="#0097ad"/>
    </g>
</svg>
