<svg xmlns="http://www.w3.org/2000/svg" viewBox="0 0 48 48">
    <path fill="#607d8b" d="M2 38.906C2 38.906 4.8 33 12 33s10 5.906 10 5.906V42H2V38.906zM46 38.906c0 0-2.8-5.906-10-5.906s-10 5.906-10 5.906V42h20V38.906z"/>
    <path fill="#ffb74d" d="M12 21A5 5 0 1 0 12 31 5 5 0 1 0 12 21zM36 21A5 5 0 1 0 36 31 5 5 0 1 0 36 21z"/>
    <path fill="#fff59d" d="M24 2A9 9 0 1 0 24 20A9 9 0 1 0 24 2Z"/>
    <path fill="#fbc02d" d="M30,11c0-3.553-3.088-6.384-6.726-5.957c-2.621,0.308-4.793,2.388-5.199,4.996 c-0.374,2.406,0.685,4.592,2.453,5.849C20.813,16.09,21,16.402,21,16.752V18h6v-1.25c0-0.349,0.186-0.659,0.47-0.861 C29,14.802,30,13.019,30,11z"/>
    <path fill="#283593" d="M21,17v3c0,1,0.7,1.8,1.6,2c0.2,0.6,0.8,1,1.4,1c0.7,0,1.2-0.4,1.4-1c0.9-0.2,1.6-1,1.6-2v-3H21z"/>
    <path fill="#fff" d="M24.983 17L23.017 17 23.017 13.277 20.46 10.72 21.837 9.343 24 11.507 26.163 9.343 27.54 10.72 24.983 13.277z"/>
    <path fill="#5c6bc0" d="M27,20v-1.9l-6,0.8V20c0,0.3,0.1,0.6,0.2,0.9l5.8-0.7C27,20.1,27,20,27,20z"/>
</svg>
