<svg xmlns="http://www.w3.org/2000/svg" viewBox="0 0 48 48">
    <path fill="#607d8b"
          d="M20,32H9v-2h11V32z M20,26h-6.586l-4.707-4.707l-1.414,1.414L12.586,28H20V26z M13.414,36H20v-2 h-7.414l-5.293,5.293l1.414,1.414L13.414,36z M26,32h13v-2H26V32z M28,28h7.414l5.293-5.293l-1.414-1.414L34.586,26H28V28z M39.293,40.707l1.414-1.414L35.414,34H26v2h8.586L39.293,40.707z" />
    <path fill="#ffa000" d="M29,38.4L25,42h-2l-4-3.6V22.8h10v6l-2.001,1.748L29,32.4v1.2l-2.001,1.8L29,37.2V38.4z" />
    <path fill="#d68600" d="M23,22.8h2V42h-2V22.8z" />
    <path fill="#ffa000"
          d="M35.194,9.929c-0.412-1.452-1.561-2.556-2.986-2.904C30.305,6.557,27.337,6,24,6 s-6.305,0.557-8.208,1.025c-1.425,0.348-2.573,1.452-2.986,2.904C12.403,11.348,12,13.32,12,15.5s0.403,4.152,0.806,5.571 c0.413,1.452,1.561,2.556,2.986,2.904C17.695,24.443,20.663,25,24,25s6.305-0.557,8.208-1.025 c1.425-0.348,2.573-1.452,2.986-2.904C35.597,19.652,36,17.68,36,15.5S35.597,11.348,35.194,9.929 M28.282,13h-8.569 C18.764,13,18,12.115,18,11.089V9.927C17.995,9.417,20.682,9,23.997,9S30,9.417,30,9.927v1.161C30,12.115,29.231,13,28.282,13" />
    <path fill="#455a64"
          d="M10,31c0,1.105-0.895,2-2,2s-2-0.895-2-2c0-1.105,0.895-2,2-2S10,29.895,10,31z M8,38 c-1.105,0-2,0.895-2,2s0.895,2,2,2s2-0.895,2-2S9.105,38,8,38z M8,20c-1.105,0-2,0.895-2,2s0.895,2,2,2s2-0.895,2-2S9.105,20,8,20 z M38,31c0,1.105,0.895,2,2,2s2-0.895,2-2c0-1.105-0.895-2-2-2S38,29.895,38,31z M38,40c0,1.105,0.895,2,2,2s2-0.895,2-2 s-0.895-2-2-2S38,38.895,38,40z M38,22c0,1.105,0.895,2,2,2s2-0.895,2-2s-0.895-2-2-2S38,20.895,38,22z" />
</svg>
