<svg xmlns="http://www.w3.org/2000/svg" width="32" height="32" viewBox="0 0 48 48">
    <path fill="#CFD8DC" d="M6,8c0-1.104,0.896-2,2-2h21c1.104,0,2,0.896,2,2v21c0,1.104-0.896,2-2,2H8c-1.104,0-2-0.896-2-2V8z"/>
    <path fill="#546E7A" d="M12.832,25.854l-0.916-1.776l0.889-0.459c0.061-0.031,6.101-3.208,9.043-9.104l0.446-0.895l1.79,0.893l-0.447,0.895c-3.241,6.496-9.645,9.85-9.916,9.989L12.832,25.854z"/>
    <path fill="#546E7A" d="M24.019 25l-.87-.49c-.207-.116-5.092-2.901-8.496-7.667l1.627-1.162c3.139 4.394 7.805 7.061 7.851 7.087L25 23.26 24.019 25zM12 13H26V15H12z"/>
    <path fill="#546E7A" d="M18 11H20V15H18z"/>
    <g>
        <path fill="#F50057" d="M41 14L37 10 41 6zM7 34L11 38 7 42z"/>
    </g>
    <path fill="#2196F3" d="M31,17h9c1.104,0,2,0.896,2,2v21c0,1.104-0.896,2-2,2H19c-1.104,0-2-0.896-2-2v-9L31,17z"/>
    <path fill="#FFF" d="M32.172,33h-4.359l-1.008,3H24l4.764-13h2.444L36,36h-2.805L32.172,33z M28.444,31h3.101l-1.559-4.714L28.444,31z"/>
</svg>
